<svg width="304" height="203" viewBox="0 0 304 203" fill="none" xmlns="http://www.w3.org/2000/svg">
<path d="M198.86 170.498L144.709 151.211V150.938H143.943H54.4649H54.442L0 170.498H0.156638V175.714H199.017V170.498H198.86Z" fill="#E6E6E6"/>
<path d="M236.773 202.588C273.736 202.588 303.7 200.145 303.7 197.132C303.7 194.118 273.736 191.676 236.773 191.676C199.811 191.676 169.846 194.118 169.846 197.132C169.846 200.145 199.811 202.588 236.773 202.588Z" fill="#E6E6E6"/>
<path d="M202.481 98.8223L199.127 101.968C199.127 101.968 190.039 109.379 194.257 112.097C198.476 114.816 203.179 103.916 203.179 103.916L204.991 101.103L202.481 98.8223Z" fill="#9F616A"/>
<path d="M221.921 44.7493L217.181 45.8646C217.181 45.8646 216.066 50.6044 216.345 55.0654C216.623 59.5264 215.253 67.8058 215.253 67.8058L212.039 75.2813L198.581 100.743L206.947 104.38L221.921 75.1398L223.315 56.4594L221.921 44.7493Z" fill="#DADADA"/>
<path d="M228.968 31.5058C237.164 31.5058 243.808 24.453 243.808 15.7529C243.808 7.0528 237.164 0 228.968 0C220.772 0 214.128 7.0528 214.128 15.7529C214.128 24.453 220.772 31.5058 228.968 31.5058Z" fill="black"/>
<path d="M242.135 39.5913C246.446 39.5913 249.942 36.0961 249.942 31.7846C249.942 27.473 246.446 23.9778 242.135 23.9778C237.823 23.9778 234.328 27.473 234.328 31.7846C234.328 36.0961 237.823 39.5913 242.135 39.5913Z" fill="black"/>
<path d="M236.698 21.329L240.88 32.2027L230.285 36.6638L229.355 34.5554L226.103 27.1842L236.698 21.329Z" fill="#9F616A"/>
<path d="M250.917 80.9949L254.821 99.3965L260.118 140.661L256.215 178.3C256.215 178.3 244.505 182.204 240.044 174.955L245.341 144.006L234.746 107.482L233.074 143.449L235.862 174.676C235.862 174.676 227.218 179.694 220.248 174.676L215.508 112.779C215.508 112.779 211.884 85.7347 220.248 76.8127L250.917 80.9949Z" fill="black"/>
<path d="M228.334 28.4388C233.492 28.4388 237.674 24.2571 237.674 19.0986C237.674 13.9402 233.492 9.75842 228.334 9.75842C223.175 9.75842 218.994 13.9402 218.994 19.0986C218.994 24.2571 223.175 28.4388 228.334 28.4388Z" fill="#9F616A"/>
<path d="M228.334 37.2214L229.247 34.3104C229.247 34.3104 237.662 32.9241 240.108 30.1935L244.505 34.7121C244.505 34.7121 256.494 38.6155 258.167 40.2883C259.84 41.9612 251.475 67.8907 251.475 67.8907C251.475 67.8907 253.427 72.3517 250.081 74.3034C250.081 74.3034 255.1 81.8313 251.196 82.6678C247.293 83.5042 219.133 77.6492 219.133 77.6492C219.133 77.6492 217.181 74.3034 221.642 72.9094C221.642 72.9094 219.97 69.006 221.921 67.6119C223.873 66.2179 222.2 58.4111 222.2 58.4111C222.2 58.4111 216.345 46.701 217.181 45.8646C218.018 45.0282 228.334 37.2214 228.334 37.2214Z" fill="#DADADA"/>
<path d="M255.657 105.53L255.379 107.761C255.379 107.761 255.657 121.144 250.639 120.586C245.62 120.029 248.687 106.924 248.687 106.924L249.523 103.857L255.657 105.53Z" fill="#9F616A"/>
<path d="M249.523 175.791C249.523 175.791 248.408 186.943 250.36 187.78C252.311 188.616 265.415 195.587 261.512 198.653C257.609 201.72 244.505 193.635 243.111 195.029C241.716 196.423 237.255 195.308 236.977 192.798C236.698 190.289 237.255 185.828 239.486 183.04C241.716 180.252 241.716 174.676 241.716 174.676L249.523 175.791Z" fill="#2F2E41"/>
<path d="M233.631 171.609L235.583 180.81C235.583 180.81 239.765 190.01 236.14 191.962C232.516 193.914 231.958 194.193 231.679 195.308C231.401 196.423 223.873 202.278 221.642 197.817C219.412 193.356 227.497 186.944 227.497 186.944L228.891 183.877L227.497 173.003L233.631 171.609Z" fill="#2F2E41"/>
<path d="M220.7 18.0742C226.57 14.1568 228.325 13.2204 235.054 14.7336L235.458 4.91663L218.069 8.56441L220.7 18.0742Z" fill="black"/>
<path d="M255.657 40.5672L258.445 40.2884C258.445 40.2884 261.234 47.5375 261.234 51.1621V75.1399L256.773 106.646L248.129 105.252L252.869 77.0916L251.475 60.084L255.657 40.5672Z" fill="#DADADA"/>
<path d="M286.241 85.1021H281.512V196.04H286.241V85.1021Z" fill="black"/>
<path d="M296.971 54.1849H270.782V89.1032H296.971V54.1849Z" fill="black"/>
<path d="M292.97 75.6451C292.8 75.6487 292.636 75.704 292.499 75.8036L291.009 63.6324C290.948 63.1333 290.706 62.6738 290.329 62.3405C289.953 62.0072 289.467 61.8232 288.965 61.8232H278.788C278.285 61.8232 277.8 62.0072 277.423 62.3405C277.047 62.6738 276.805 63.1333 276.744 63.6324L275.254 75.8036C275.117 75.704 274.952 75.6487 274.783 75.6451C273.98 75.6451 273.328 76.9478 273.328 78.5549C273.328 80.162 273.98 81.4648 274.783 81.4648C275.393 81.4648 275.915 80.7121 276.131 79.6461H291.621C291.837 80.7121 292.359 81.4648 292.97 81.4648C293.773 81.4648 294.425 80.162 294.425 78.5549C294.425 76.9479 293.773 75.6451 292.97 75.6451ZM279.148 76.3725C278.788 76.3725 278.437 76.2659 278.137 76.066C277.838 75.8662 277.605 75.5821 277.468 75.2498C277.33 74.9175 277.294 74.5518 277.364 74.1991C277.434 73.8463 277.608 73.5222 277.862 73.2679C278.116 73.0135 278.44 72.8403 278.793 72.7701C279.146 72.7 279.511 72.736 279.844 72.8736C280.176 73.0113 280.46 73.2444 280.66 73.5435C280.86 73.8426 280.966 74.1942 280.966 74.5539C280.966 74.7927 280.919 75.0292 280.828 75.2498C280.737 75.4705 280.603 75.671 280.434 75.8399C280.265 76.0087 280.064 76.1427 279.844 76.2341C279.623 76.3255 279.387 76.3725 279.148 76.3725V76.3725ZM288.241 76.3725C287.881 76.3725 287.53 76.2659 287.231 76.066C286.932 75.8662 286.699 75.5822 286.561 75.2498C286.423 74.9175 286.387 74.5518 286.457 74.1991C286.528 73.8463 286.701 73.5222 286.955 73.2679C287.209 73.0135 287.534 72.8403 287.886 72.7701C288.239 72.7 288.605 72.736 288.937 72.8736C289.269 73.0113 289.553 73.2444 289.753 73.5435C289.953 73.8426 290.06 74.1942 290.06 74.5539C290.06 74.7927 290.013 75.0292 289.921 75.2498C289.83 75.4705 289.696 75.671 289.527 75.8399C289.358 76.0087 289.158 76.1427 288.937 76.2341C288.716 76.3255 288.48 76.3725 288.241 76.3725V76.3725ZM290.424 69.4244C290.424 69.5726 290.394 69.7193 290.338 69.8562C290.281 69.9931 290.198 70.1175 290.093 70.2223C289.988 70.3271 289.864 70.4102 289.727 70.4669C289.59 70.5236 289.443 70.5528 289.295 70.5528H278.458C278.309 70.5528 278.163 70.5236 278.026 70.4669C277.889 70.4102 277.764 70.3271 277.66 70.2223C277.555 70.1175 277.472 69.9931 277.415 69.8562C277.358 69.7193 277.329 69.5726 277.329 69.4244V65.8615C277.329 65.7133 277.358 65.5666 277.415 65.4297C277.472 65.2928 277.555 65.1684 277.66 65.0636C277.764 64.9588 277.889 64.8757 278.026 64.819C278.163 64.7623 278.309 64.7331 278.458 64.7331H289.295C289.443 64.7331 289.59 64.7623 289.727 64.819C289.864 64.8757 289.988 64.9588 290.093 65.0636C290.198 65.1684 290.281 65.2928 290.338 65.4297C290.394 65.5666 290.424 65.7133 290.424 65.8615V69.4244Z" fill="white"/>
<path d="M194.623 97.3877L195.685 99.45C195.695 99.469 195.696 99.4912 195.69 99.5116C195.683 99.532 195.669 99.549 195.65 99.5589L195.599 99.5852L201.128 110.328C201.281 110.625 201.309 110.971 201.207 111.29C201.105 111.608 200.881 111.873 200.584 112.026L193.871 115.481C193.724 115.556 193.563 115.602 193.398 115.616C193.233 115.63 193.067 115.611 192.91 115.56C192.752 115.51 192.606 115.429 192.479 115.322C192.353 115.215 192.249 115.084 192.174 114.936L186.838 104.57L186.801 104.589C186.788 104.596 186.772 104.598 186.758 104.593C186.744 104.589 186.732 104.578 186.725 104.565L186.121 103.391C186.117 103.385 186.115 103.377 186.114 103.37C186.114 103.362 186.115 103.355 186.117 103.348C186.119 103.341 186.123 103.334 186.128 103.328C186.133 103.322 186.139 103.318 186.145 103.314L186.182 103.295L185.955 102.853L185.917 102.872C185.903 102.88 185.887 102.881 185.872 102.876C185.857 102.871 185.844 102.86 185.837 102.846L185.241 101.689C185.234 101.675 185.232 101.658 185.237 101.643C185.242 101.628 185.253 101.616 185.267 101.608L185.304 101.589L184.994 100.986L184.956 101.005C184.949 101.008 184.943 101.01 184.936 101.011C184.929 101.011 184.922 101.011 184.915 101.008C184.909 101.006 184.902 101.003 184.897 100.998C184.892 100.994 184.887 100.988 184.884 100.982L184.559 100.351C184.553 100.338 184.551 100.323 184.556 100.31C184.56 100.297 184.569 100.285 184.582 100.279L184.62 100.259L183.961 98.9802C183.809 98.6829 183.78 98.3372 183.882 98.0188C183.984 97.7005 184.208 97.4358 184.505 97.2828L191.218 93.8281C191.515 93.6751 191.861 93.6465 192.179 93.7484C192.498 93.8504 192.763 94.0746 192.916 94.3718L194.463 97.3792L194.515 97.3528C194.534 97.3431 194.556 97.3413 194.576 97.3478C194.597 97.3543 194.614 97.3687 194.623 97.3877V97.3877Z" fill="#3F3D56"/>
<path d="M192.493 94.8697L200.639 110.697C200.736 110.886 200.754 111.105 200.689 111.307C200.624 111.509 200.482 111.677 200.294 111.774L193.868 115.081C193.775 115.129 193.673 115.159 193.568 115.168C193.463 115.176 193.358 115.164 193.258 115.132C193.158 115.1 193.065 115.049 192.985 114.981C192.905 114.913 192.839 114.83 192.791 114.736L184.645 98.9087C184.597 98.8154 184.568 98.7134 184.559 98.6087C184.55 98.5041 184.562 98.3987 184.595 98.2987C184.627 98.1986 184.678 98.1059 184.746 98.0258C184.814 97.9456 184.897 97.8796 184.99 97.8316L185.952 97.3366L186.015 97.46C186.095 97.6153 186.234 97.7325 186.4 97.7858C186.566 97.8391 186.747 97.8241 186.902 97.7442L190.17 96.0623C190.326 95.9824 190.443 95.8441 190.496 95.6777C190.549 95.5114 190.534 95.3307 190.455 95.1754L190.391 95.052L191.416 94.5246C191.509 94.4764 191.611 94.4472 191.716 94.4385C191.821 94.4298 191.926 94.4419 192.026 94.4739C192.126 94.506 192.219 94.5574 192.299 94.6253C192.379 94.6933 192.445 94.7763 192.493 94.8697V94.8697Z" fill="#FDCD03"/>
<path d="M134.019 134.238C133.378 134.252 132.756 134.461 132.237 134.839L126.594 88.7517C126.363 86.8617 125.448 85.1217 124.022 83.8597C122.596 82.5978 120.758 81.9011 118.854 81.9011H80.32C78.4158 81.9011 76.5775 82.5978 75.1516 83.8597C73.7257 85.1217 72.8107 86.8617 72.5792 88.7517L66.9361 134.839C66.4174 134.461 65.7957 134.252 65.1544 134.238C62.1118 134.238 59.6453 139.171 59.6453 145.257C59.6453 151.342 62.1118 156.275 65.1544 156.275C67.4659 156.275 69.4417 153.425 70.2594 149.389H128.914C129.732 153.425 131.708 156.275 134.019 156.275C137.062 156.275 139.528 151.342 139.528 145.257C139.528 139.171 137.062 134.238 134.019 134.238ZM81.682 136.993C80.32 136.993 78.9885 136.589 77.856 135.832C76.7236 135.076 75.8409 134 75.3197 132.742C74.7985 131.483 74.6621 130.099 74.9278 128.763C75.1935 127.427 75.8494 126.2 76.8125 125.237C77.7756 124.274 79.0026 123.618 80.3385 123.352C81.6743 123.087 83.059 123.223 84.3173 123.744C85.5756 124.265 86.6512 125.148 87.4079 126.28C88.1645 127.413 88.5684 128.744 88.5684 130.106C88.5684 131.011 88.3903 131.906 88.0442 132.742C87.6982 133.577 87.1909 134.336 86.5514 134.976C85.912 135.615 85.1528 136.123 84.3173 136.469C83.4818 136.815 82.5863 136.993 81.682 136.993V136.993ZM116.114 136.993C114.752 136.993 113.421 136.589 112.288 135.832C111.156 135.076 110.273 134 109.752 132.742C109.231 131.483 109.094 130.099 109.36 128.763C109.626 127.427 110.282 126.2 111.245 125.237C112.208 124.274 113.435 123.618 114.771 123.352C116.107 123.087 117.491 123.223 118.75 123.744C120.008 124.265 121.083 125.148 121.84 126.28C122.597 127.413 123.001 128.744 123.001 130.106C123.001 131.011 122.823 131.906 122.477 132.742C122.131 133.577 121.623 134.336 120.984 134.976C120.344 135.615 119.585 136.123 118.75 136.469C117.914 136.815 117.019 136.993 116.114 136.993V136.993ZM124.378 110.683C124.378 111.244 124.268 111.8 124.053 112.318C123.838 112.837 123.523 113.308 123.127 113.705C122.73 114.101 122.259 114.416 121.74 114.631C121.222 114.846 120.666 114.956 120.105 114.956H79.0683C78.5072 114.956 77.9516 114.846 77.4332 114.631C76.9148 114.416 76.4437 114.101 76.047 113.705C75.6502 113.308 75.3355 112.837 75.1207 112.318C74.906 111.8 74.7955 111.244 74.7955 110.683V97.1923C74.7955 96.6312 74.906 96.0756 75.1207 95.5572C75.3355 95.0388 75.6502 94.5677 76.047 94.171C76.4437 93.7742 76.9148 93.4595 77.4332 93.2447C77.9516 93.03 78.5072 92.9195 79.0683 92.9195H120.105C120.666 92.9195 121.222 93.03 121.74 93.2447C122.259 93.4595 122.73 93.7742 123.127 94.171C123.523 94.5677 123.838 95.0388 124.053 95.5572C124.268 96.0756 124.378 96.6312 124.378 97.1923V110.683Z" fill="black"/>
<path d="M106.8 84.0814H92.3733L95.465 79.4442H103.709L106.8 84.0814Z" fill="#FDCD03"/>
<path d="M97.8377 72.7709C106.77 72.7709 114.011 65.5298 114.011 56.5975C114.011 47.6652 106.77 40.4241 97.8377 40.4241C88.9054 40.4241 81.6643 47.6652 81.6643 56.5975C81.6643 65.5298 88.9054 72.7709 97.8377 72.7709Z" fill="#FDCD03"/>
<path d="M96.2965 63.4247L91.4558 57.2005L94.2708 55.011L96.563 57.9581L104.306 49.7842L106.895 52.2374L96.2965 63.4247Z" fill="white"/>
<path d="M101.06 151.401H97.8003V153.357H101.06V151.401Z" fill="white"/>
<path d="M101.06 170.199H97.8003V165.989H101.06V170.199ZM101.06 161.778H97.8003V157.567H101.06V161.778Z" fill="white"/>
<path d="M101.06 174.41H97.8003V176.366H101.06V174.41Z" fill="white"/>
<circle cx="192.595" cy="104.473" r="1.5" fill="white" stroke="black" stroke-width="0.633858"/>
</svg>
