<svg width="303" height="258" viewBox="0 0 303 258" fill="none" xmlns="http://www.w3.org/2000/svg">
<path d="M220.186 26.1699H89.072V227.993H220.186V26.1699Z" fill="white"/>
<path d="M84.4548 13.262V242.298C84.4548 249.618 89.9796 255.56 96.7868 255.56H212.491C219.298 255.56 224.823 249.618 224.823 242.298V13.262C224.823 5.94234 219.298 0 212.491 0H96.7868C89.9796 0 84.4548 5.94234 84.4548 13.262ZM220.186 227.993H89.0719V26.1699H220.186V227.993Z" fill="black"/>
<path d="M169.575 16.0167H139.682C138.656 16.0167 137.847 15.1903 137.847 14.1868C137.847 13.1636 138.676 12.3569 139.682 12.3569H169.555C170.581 12.3569 171.39 13.1833 171.39 14.1868C171.41 15.21 170.581 16.0167 169.575 16.0167Z" fill="white"/>
<path d="M162.926 243.046C162.926 247.611 159.216 251.31 154.639 251.31C150.061 251.31 146.352 247.611 146.352 243.046C146.352 238.481 150.061 234.782 154.639 234.782C159.216 234.782 162.926 238.481 162.926 243.046Z" fill="#2773E2"/>
<path d="M197.791 113.731H142.603V119.044H197.791V113.731Z" fill="#DADADA"/>
<path d="M197.791 143.128H142.603V148.44H197.791V143.128Z" fill="#DADADA"/>
<path d="M197.791 172.505H142.603V177.818H197.791V172.505Z" fill="#DADADA"/>
<path d="M121.115 117.706C121.115 119.909 119.32 121.68 117.13 121.68C114.92 121.68 113.144 119.89 113.144 117.706C113.144 115.502 114.94 113.731 117.13 113.731C119.32 113.731 121.115 115.502 121.115 117.706Z" fill="#EFCF64"/>
<path d="M121.115 173.843C121.115 176.047 119.32 177.818 117.13 177.818C114.92 177.818 113.144 176.027 113.144 173.843C113.144 171.639 114.94 169.868 117.13 169.868C119.32 169.868 121.115 171.639 121.115 173.843Z" fill="#D3807C"/>
<path d="M117.781 123.235H116.459V168.55H117.781V123.235Z" fill="#AFAFEF"/>
<path d="M117.13 150.408C114.565 150.408 112.473 148.322 112.473 145.765C112.473 143.207 114.565 141.121 117.13 141.121C119.695 141.121 121.767 143.207 121.767 145.765C121.767 148.322 119.695 150.408 117.13 150.408Z" fill="#EFCF64"/>
<path d="M117.13 141.79C119.34 141.79 121.116 143.58 121.116 145.765C121.116 147.949 119.32 149.739 117.13 149.739C114.92 149.739 113.144 147.949 113.144 145.765C113.144 143.58 114.92 141.79 117.13 141.79ZM117.13 140.471C114.19 140.471 111.802 142.852 111.802 145.784C111.802 148.716 114.19 151.097 117.13 151.097C120.07 151.097 122.457 148.716 122.457 145.784C122.438 142.852 120.05 140.471 117.13 140.471Z" fill="white"/>
<path d="M202.014 193.067H107.264V202.354H202.014V193.067Z" fill="#DADADA"/>
<path d="M9.49457 243.716C15.7131 242.086 20.1858 248.527 20.48 248.916C20.7547 247.596 23.4618 235.463 32.2501 231.168C37.8017 228.426 42.6863 230.392 44.3734 231.168C43.2552 227.029 43.8437 222.424 45.9035 219.113C48.1006 215.569 51.6905 214.12 55.0057 215.465C58.7525 207.471 65.6577 203.332 72.4255 204.988C79.1148 206.643 84.4899 213.654 86.0788 222.761C88.0994 218.595 91.7481 216.474 95.1811 217.535C98.2609 218.44 100.713 221.674 101.635 225.917C105.813 219.889 112.169 217.638 117.917 220.173C123.037 222.398 126.96 228.09 128.392 235.178C132.512 230.703 138.064 228.995 143.203 231.22C150.913 234.557 155.778 245.863 154.091 257.272C145.636 257.272 137.2 257.272 128.746 257.272H118.211H0C0.94161 250.364 4.74728 244.957 9.49457 243.716Z" fill="url(#paint0_linear_195_2386)"/>
<path d="M103.241 245.229C108.784 243.791 112.799 249.491 113.074 249.851C113.309 248.67 115.737 237.885 123.591 234.059C128.546 231.645 132.934 233.365 134.422 234.059C133.423 230.387 133.952 226.278 135.793 223.351C137.771 220.192 140.964 218.909 143.921 220.115C147.271 213.003 153.44 209.331 159.492 210.794C165.466 212.284 170.264 218.498 171.694 226.612C173.496 222.914 176.767 221.04 179.822 221.964C182.564 222.76 184.758 225.636 185.6 229.411C189.341 224.07 195.021 222.041 200.152 224.301C204.736 226.278 208.241 231.337 209.534 237.628C213.216 233.648 218.171 232.133 222.774 234.11C229.668 237.089 234.016 247.129 232.508 257.272C224.948 257.272 217.408 257.272 209.847 257.272H200.466H94.7607C95.6029 251.16 99.0109 246.333 103.241 245.229Z" fill="url(#paint1_linear_195_2386)"/>
<path d="M172.336 245.229C177.926 243.791 181.975 249.491 182.252 249.851C182.489 248.67 184.938 237.885 192.858 234.059C197.856 231.645 202.28 233.365 203.781 234.059C202.774 230.387 203.307 226.278 205.164 223.351C207.159 220.192 210.378 218.909 213.361 220.115C216.738 213.003 222.96 209.331 229.064 210.794C235.088 212.284 239.927 218.498 241.369 226.612C243.186 222.914 246.485 221.04 249.566 221.964C252.331 222.76 254.544 225.636 255.393 229.411C259.165 224.07 264.894 222.041 270.069 224.301C274.69 226.278 278.226 231.337 279.53 237.628C283.243 233.648 288.24 232.133 292.882 234.11C299.835 237.089 304.22 247.129 302.699 257.272C295.074 257.272 287.47 257.272 279.846 257.272H270.385H163.784C164.633 251.16 168.07 246.333 172.336 245.229Z" fill="url(#paint2_linear_195_2386)"/>
<path d="M266.613 179.155L262.904 182.855C260.852 184.901 257.537 184.901 255.505 182.855L196.706 124.218L207.814 113.14L266.613 171.777C268.665 173.823 268.665 177.129 266.613 179.155Z" fill="#212F47"/>
<path d="M186.039 96.9277L180.444 102.507L199.46 121.471L205.055 115.892L186.039 96.9277Z" fill="#BBD5F9"/>
<path d="M154.935 35.6737C164.524 35.6737 173.541 39.3925 180.329 46.1613C194.338 60.1317 194.338 82.8385 180.329 96.8089C173.541 103.578 164.524 107.297 154.935 107.297C145.345 107.297 136.328 103.578 129.541 96.8089C115.531 82.8385 115.531 60.1317 129.541 46.1613C136.328 39.3925 145.345 35.6737 154.935 35.6737ZM154.935 33.8044C145.266 33.8044 135.598 37.4839 128.219 44.843C113.46 59.5611 113.46 83.4091 128.219 98.1272C135.598 105.486 145.266 109.166 154.935 109.166C164.603 109.166 174.271 105.486 181.651 98.1272C196.41 83.4091 196.41 59.5611 181.651 44.843C174.271 37.4839 164.603 33.8044 154.935 33.8044Z" fill="white"/>
<path d="M154.935 106.45C174.299 106.45 189.997 90.7958 189.997 71.485C189.997 52.1742 174.299 36.5197 154.935 36.5197C135.57 36.5197 119.873 52.1742 119.873 71.485C119.873 90.7958 135.57 106.45 154.935 106.45Z" fill="white"/>
<path d="M125.239 41.8717C108.843 58.223 108.843 84.7274 125.239 101.079C141.636 117.43 168.214 117.43 184.61 101.079C201.007 84.7274 201.007 58.223 184.61 41.8717C168.234 25.5205 141.656 25.5205 125.239 41.8717ZM181.651 98.1272C166.892 112.845 142.978 112.845 128.219 98.1272C113.46 83.4091 113.46 59.561 128.219 44.8429C142.978 30.1248 166.892 30.1248 181.651 44.8429C196.41 59.561 196.41 83.4091 181.651 98.1272Z" fill="#212F47"/>
<path d="M180.783 47.8731L131.257 97.2614C132.974 98.8355 134.809 100.193 136.743 101.374L184.906 53.3432C183.742 51.4149 182.361 49.585 180.783 47.8731ZM153.238 36.559L119.932 69.7732C119.576 77.1716 121.569 84.6487 125.89 91.0436L174.548 42.5014C168.155 38.1922 160.657 36.2049 153.238 36.559Z" fill="black"/>
<defs>
<linearGradient id="paint0_linear_195_2386" x1="77.2124" y1="257.306" x2="77.2124" y2="204.652" gradientUnits="userSpaceOnUse">
<stop stop-color="white"/>
<stop offset="1" stop-color="#DADADA"/>
</linearGradient>
<linearGradient id="paint1_linear_195_2386" x1="163.797" y1="257.309" x2="163.797" y2="210.51" gradientUnits="userSpaceOnUse">
<stop stop-color="white"/>
<stop offset="1" stop-color="#DADADA"/>
</linearGradient>
<linearGradient id="paint2_linear_195_2386" x1="233.405" y1="257.309" x2="233.405" y2="210.51" gradientUnits="userSpaceOnUse">
<stop stop-color="white"/>
<stop offset="1" stop-color="#DADADA"/>
</linearGradient>
</defs>
</svg>
