<svg width="303" height="170" viewBox="0 0 303 170" fill="none" xmlns="http://www.w3.org/2000/svg">
<path d="M77.0871 53.2046C86.7721 53.2046 94.6233 45.3533 94.6233 35.6683C94.6233 25.9833 86.7721 18.132 77.0871 18.132C67.402 18.132 59.5508 25.9833 59.5508 35.6683C59.5508 45.3533 67.402 53.2046 77.0871 53.2046Z" fill="#FDCD03"/>
<path d="M132.079 89.7086H46.0513C45.9436 89.71 45.836 89.7015 45.7299 89.6832L86.417 19.2072C86.6653 18.7683 87.0257 18.4031 87.4613 18.1491C87.8969 17.895 88.3922 17.7612 88.8965 17.7612C89.4008 17.7612 89.896 17.895 90.3317 18.1491C90.7673 18.4031 91.1277 18.7683 91.376 19.2072L118.682 66.502L119.99 68.7651L132.079 89.7086Z" fill="black"/>
<path opacity="0.2" d="M132.079 89.7086H102.707L117.126 68.7649L118.163 67.2563L118.682 66.5022L119.99 68.7649L132.079 89.7086Z" fill="black"/>
<path d="M179.979 89.7086H105.572L119.99 68.7651L121.028 67.2564L139.817 39.9629C141.048 38.1741 144.012 38.0627 145.46 39.6255C145.557 39.7321 145.648 39.8448 145.73 39.9629L179.979 89.7086Z" fill="black"/>
<path d="M201.82 78.1145C204.738 78.1145 207.104 75.7486 207.104 72.8302C207.104 69.9118 204.738 67.546 201.82 67.546C198.901 67.546 196.536 69.9118 196.536 72.8302C196.536 75.7486 198.901 78.1145 201.82 78.1145Z" fill="#FDCD03"/>
<path d="M202.33 88.7468H201.247L201.74 72.0344L202.33 88.7468Z" fill="#3F3D56"/>
<path d="M201.836 75.2018L202.998 73.5941L201.82 75.5998L201.693 75.377L201.836 75.2018Z" fill="#3F3D56"/>
<path d="M201.709 76.8251L200.547 75.2177L201.725 77.2231L201.852 77.0003L201.709 76.8251Z" fill="#3F3D56"/>
<path d="M250.293 78.1145C253.212 78.1145 255.578 75.7486 255.578 72.8302C255.578 69.9118 253.212 67.546 250.293 67.546C247.375 67.546 245.009 69.9118 245.009 72.8302C245.009 75.7486 247.375 78.1145 250.293 78.1145Z" fill="#FDCD03"/>
<path d="M250.803 88.7468H249.72L250.214 72.0344L250.803 88.7468Z" fill="#3F3D56"/>
<path d="M250.309 75.2018L251.471 73.5941L250.293 75.5998L250.166 75.377L250.309 75.2018Z" fill="#3F3D56"/>
<path d="M250.182 76.8251L249.02 75.2177L250.198 77.2231L250.325 77.0003L250.182 76.8251Z" fill="#3F3D56"/>
<path d="M217.128 73.0438C221.438 73.0438 224.932 69.5496 224.932 65.2394C224.932 60.9291 221.438 57.4349 217.128 57.4349C212.817 57.4349 209.323 60.9291 209.323 65.2394C209.323 69.5496 212.817 73.0438 217.128 73.0438Z" fill="#FDCD03"/>
<path d="M217.88 88.7468H216.281L217.01 64.064L217.88 88.7468Z" fill="#3F3D56"/>
<path d="M217.151 68.7418L218.867 66.3679L217.128 69.3298L216.94 69.0006L217.151 68.7418Z" fill="#3F3D56"/>
<path d="M216.963 71.1396L215.247 68.7656L216.986 71.7272L217.175 71.3983L216.963 71.1396Z" fill="#3F3D56"/>
<path d="M236.16 73.0438C240.47 73.0438 243.964 69.5496 243.964 65.2394C243.964 60.9291 240.47 57.4349 236.16 57.4349C231.85 57.4349 228.356 60.9291 228.356 65.2394C228.356 69.5496 231.85 73.0438 236.16 73.0438Z" fill="#FDCD03"/>
<path d="M236.912 88.7468H235.314L236.043 64.064L236.912 88.7468Z" fill="#3F3D56"/>
<path d="M236.184 68.7418L237.9 66.3679L236.16 69.3298L235.972 69.0006L236.184 68.7418Z" fill="#3F3D56"/>
<path d="M235.996 71.1396L234.279 68.7656L236.019 71.7272L236.207 71.3983L235.996 71.1396Z" fill="#3F3D56"/>
<path d="M186.795 73.0438C191.105 73.0438 194.599 69.5496 194.599 65.2394C194.599 60.9291 191.105 57.4349 186.795 57.4349C182.485 57.4349 178.99 60.9291 178.99 65.2394C178.99 69.5496 182.485 73.0438 186.795 73.0438Z" fill="#FDCD03"/>
<path d="M187.547 88.7468H185.948L186.677 64.064L187.547 88.7468Z" fill="#3F3D56"/>
<path d="M186.818 68.7418L188.534 66.3679L186.795 69.3298L186.607 69.0006L186.818 68.7418Z" fill="#3F3D56"/>
<path d="M186.63 71.1396L184.914 68.7656L186.654 71.7272L186.842 71.3983L186.63 71.1396Z" fill="#3F3D56"/>
<path d="M279.128 169.838H24.4355C21.2266 169.838 18.0491 169.206 15.0844 167.978C12.1198 166.75 9.42604 164.95 7.15699 162.681C4.88795 160.412 3.08804 157.718 1.86004 154.754C0.632043 151.789 0 148.612 0 145.403C0 142.194 0.632043 139.016 1.86004 136.052C3.08804 133.087 4.88795 130.393 7.15699 128.124C9.42604 125.855 12.1198 124.055 15.0844 122.827C18.0491 121.599 21.2266 120.967 24.4355 120.967H278.565C281.057 120.967 283.448 119.977 285.21 118.214C286.973 116.452 287.963 114.061 287.963 111.569C287.963 109.076 286.973 106.686 285.21 104.923C283.448 103.161 281.057 102.171 278.565 102.171H15.9771V87.1334H278.565C285.045 87.1334 291.26 89.7079 295.843 94.2904C300.426 98.873 303 105.088 303 111.569C303 118.05 300.426 124.265 295.843 128.847C291.26 133.43 285.045 136.004 278.565 136.004H24.4355C21.9429 136.004 19.5524 136.995 17.7899 138.757C16.0274 140.52 15.0372 142.91 15.0372 145.403C15.0372 147.895 16.0274 150.286 17.7899 152.048C19.5524 153.811 21.9429 154.801 24.4355 154.801H279.128V169.838Z" fill="#DADADA"/>
<path d="M37.0291 94.2762H25.3752V95.028H37.0291V94.2762Z" fill="white"/>
<path d="M70.111 94.2762H58.4572V95.028H70.111V94.2762Z" fill="white"/>
<path d="M103.193 94.2762H91.5392V95.028H103.193V94.2762Z" fill="white"/>
<path d="M136.275 94.2762H124.621V95.028H136.275V94.2762Z" fill="white"/>
<path d="M169.357 94.2762H157.703V95.028H169.357V94.2762Z" fill="white"/>
<path d="M202.439 94.2762H190.785V95.028H202.439V94.2762Z" fill="white"/>
<path d="M235.52 94.2762H223.867V95.028H235.52V94.2762Z" fill="white"/>
<path d="M268.602 94.2762H256.948V95.028H268.602V94.2762Z" fill="white"/>
<path d="M37.0291 128.11H25.3752V128.862H37.0291V128.11Z" fill="white"/>
<path d="M70.111 128.11H58.4572V128.862H70.111V128.11Z" fill="white"/>
<path d="M103.193 128.11H91.5392V128.862H103.193V128.11Z" fill="white"/>
<path d="M136.275 128.11H124.621V128.862H136.275V128.11Z" fill="white"/>
<path d="M169.357 128.11H157.703V128.862H169.357V128.11Z" fill="white"/>
<path d="M202.439 128.11H190.785V128.862H202.439V128.11Z" fill="white"/>
<path d="M235.52 128.11H223.867V128.862H235.52V128.11Z" fill="white"/>
<path d="M268.602 128.11H256.948V128.862H268.602V128.11Z" fill="white"/>
<path d="M37.0291 161.944H25.3752V162.695H37.0291V161.944Z" fill="white"/>
<path d="M70.111 161.944H58.4572V162.695H70.111V161.944Z" fill="white"/>
<path d="M103.193 161.944H91.5392V162.695H103.193V161.944Z" fill="white"/>
<path d="M136.275 161.944H124.621V162.695H136.275V161.944Z" fill="white"/>
<path d="M169.357 161.944H157.703V162.695H169.357V161.944Z" fill="white"/>
<path d="M202.439 161.944H190.785V162.695H202.439V161.944Z" fill="white"/>
<path d="M235.52 161.944H223.867V162.695H235.52V161.944Z" fill="white"/>
<path d="M268.602 161.944H256.948V162.695H268.602V161.944Z" fill="white"/>
<path d="M201.269 29.8397C202.493 29.8386 203.698 30.1498 204.768 30.7439H197.779C198.846 30.15 200.048 29.8387 201.269 29.8397V29.8397Z" fill="#E6E6E6"/>
<path d="M187.706 28.9355C189.751 28.9331 191.747 29.5649 193.418 30.7439H182.002C183.671 29.5663 185.663 28.9345 187.706 28.9355Z" fill="#E6E6E6"/>
<path d="M110.878 17.4892C111.126 13.1034 112.924 8.94821 115.951 5.76449C118.977 2.58077 123.036 0.575482 127.404 0.106137C131.772 -0.363208 136.164 0.733903 139.798 3.20187C143.432 5.66983 146.072 9.34823 147.246 13.5812C147.47 13.5732 147.695 13.5641 147.921 13.5641C151.926 13.5649 155.823 14.8622 159.028 17.2621C162.234 19.6619 164.577 23.0353 165.706 26.8774C168.36 25.7115 171.325 25.4585 174.138 26.1582C176.951 26.8578 179.452 28.4706 181.25 30.7439H123.43C121.744 30.7487 120.073 30.413 118.519 29.757C116.965 29.101 115.559 28.1382 114.386 26.9262C113.213 25.7142 112.297 24.2779 111.691 22.7034C111.086 21.1288 110.805 19.4484 110.865 17.7626C110.869 17.6716 110.873 17.5805 110.878 17.4892Z" fill="#E6E6E6"/>
<path d="M205.488 43.3732C204.264 43.3721 203.059 43.6833 201.989 44.2774H208.978C207.911 43.6835 206.71 43.3722 205.488 43.3732Z" fill="#E6E6E6"/>
<path d="M219.051 42.469C217.006 42.4666 215.01 43.0984 213.339 44.2774H224.755C223.086 43.0998 221.093 42.4681 219.051 42.469Z" fill="#E6E6E6"/>
<path d="M295.879 31.0227C295.631 26.6369 293.833 22.4817 290.806 19.298C287.78 16.1143 283.721 14.109 279.353 13.6396C274.985 13.1703 270.593 14.2674 266.959 16.7354C263.325 19.2033 260.685 22.8817 259.511 27.1147C259.287 27.1067 259.062 27.0977 258.836 27.0977C254.831 27.0984 250.934 28.3957 247.728 30.7956C244.522 33.1954 242.18 36.5688 241.051 40.411C238.397 39.245 235.432 38.992 232.619 39.6917C229.806 40.3913 227.305 42.0041 225.507 44.2774H283.327C285.013 44.2822 286.684 43.9465 288.238 43.2905C289.792 42.6345 291.197 41.6717 292.371 40.4597C293.544 39.2477 294.46 37.8114 295.065 36.2369C295.67 34.6623 295.952 32.9819 295.892 31.2961C295.888 31.2051 295.884 31.114 295.879 31.0227Z" fill="#E6E6E6"/>
<path d="M257.331 159.33L264.051 159.333L264.051 158.267L257.331 158.263L257.331 159.33Z" fill="#3F3D56"/>
<path d="M208.744 158.504L210.131 158.825L262.824 158.853L263.298 157.749C264.125 155.855 264.408 153.769 264.118 151.723C263.891 150.199 263.322 148.684 262.03 148.026L259.692 132.451L230.539 132.399L219.26 141.496C219.26 141.496 213.94 141.4 211.049 144.999C210.007 146.337 209.391 147.958 209.282 149.651L209.168 151.523L208.744 158.504Z" fill="black"/>
<path d="M220.318 164.75C223.911 164.75 226.825 161.837 226.825 158.243C226.825 154.65 223.911 151.737 220.318 151.737C216.724 151.737 213.811 154.65 213.811 158.243C213.811 161.837 216.724 164.75 220.318 164.75Z" fill="#212121"/>
<path d="M220.318 161.668C222.209 161.668 223.743 160.135 223.743 158.243C223.743 156.352 222.209 154.819 220.318 154.819C218.427 154.819 216.893 156.352 216.893 158.243C216.893 160.135 218.427 161.668 220.318 161.668Z" fill="#CCCCCC"/>
<path d="M252.425 164.767C256.018 164.767 258.931 161.854 258.931 158.261C258.931 154.667 256.018 151.754 252.425 151.754C248.831 151.754 245.918 154.667 245.918 158.261C245.918 161.854 248.831 164.767 252.425 164.767Z" fill="#212121"/>
<path d="M252.425 161.685C254.316 161.685 255.849 160.152 255.849 158.261C255.849 156.369 254.316 154.836 252.425 154.836C250.533 154.836 249 156.369 249 158.261C249 160.152 250.533 161.685 252.425 161.685Z" fill="#CCCCCC"/>
<path d="M223.742 140.433L239.482 140.439H241.403L244.647 140.442V140.205L244.649 137.352L244.652 134.149H242.493L240.572 134.147L237.168 134.145H235.247L231.318 134.143L223.742 140.433Z" fill="white"/>
<path d="M247.208 140.444L255.527 140.449L255.529 138.817V135.964L255.531 134.156H254.313L252.392 134.154L247.211 134.152L247.208 140.444Z" fill="white"/>
<path d="M243.577 147.162L244.644 147.163L244.645 145.136L243.578 145.136L243.577 147.162Z" fill="#212121"/>
<path d="M228.006 143.314L228.006 142.247L225.98 142.246L225.979 143.313L228.006 143.314Z" fill="#212121"/>
<path d="M227.26 142.716L227.142 142.716C226.85 142.716 226.56 142.658 226.289 142.546C226.019 142.434 225.773 142.27 225.566 142.063C225.359 141.855 225.195 141.61 225.083 141.339C224.972 141.068 224.914 140.779 224.914 140.486V140.486C224.914 140.193 224.972 139.903 225.084 139.633C225.196 139.362 225.361 139.117 225.568 138.91C225.775 138.703 226.021 138.539 226.291 138.427C226.562 138.315 226.852 138.257 227.145 138.258L227.262 138.258L227.26 142.716Z" fill="#212121"/>
<path d="M209.168 151.523C209.975 151.61 210.787 151.411 211.461 150.959C212.134 150.507 212.627 149.831 212.852 149.052C213.077 148.272 213.019 147.438 212.689 146.697C212.36 145.955 211.779 145.354 211.049 144.999C210.006 146.337 209.391 147.958 209.282 149.651L209.168 151.523Z" fill="#212121"/>
<path d="M240.572 134.147L244.647 140.205L244.649 137.352L242.493 134.149L240.572 134.147Z" fill="#F2F2F2"/>
<path d="M252.392 134.154L255.529 138.817V135.964L254.313 134.156L252.392 134.154Z" fill="#F2F2F2"/>
<path d="M235.247 134.145L239.482 140.439H241.403L237.169 134.145H235.247Z" fill="#F2F2F2"/>
</svg>
