<svg width="288" height="255" viewBox="0 0 288 255" fill="none" xmlns="http://www.w3.org/2000/svg">
<g clip-path="url(#clip0_12_959)">
<path d="M274.652 253.782L274.269 253.639C274.185 253.607 265.816 250.401 261.895 243.13C257.975 235.859 259.894 227.105 259.914 227.017L260.004 226.619L260.387 226.762C260.471 226.794 268.84 230 272.761 237.271C276.682 244.542 274.762 253.296 274.742 253.384L274.652 253.782ZM262.523 242.792C265.838 248.939 272.451 252.09 274.127 252.81C274.446 251.014 275.445 243.751 272.133 237.609C268.822 231.469 262.205 228.313 260.529 227.591C260.21 229.388 259.211 236.65 262.523 242.792Z" fill="#3F3D56"/>
<path d="M264.891 240.579C271.937 244.818 274.651 253.238 274.651 253.238C274.651 253.238 265.941 254.785 258.895 250.546C251.849 246.307 249.136 237.888 249.136 237.888C249.136 237.888 257.846 236.341 264.891 240.579Z" fill="#FDCD03"/>
<path d="M151.461 136.191C151.803 135.663 152.252 135.213 152.779 134.87C153.307 134.528 153.901 134.301 154.522 134.204C155.144 134.107 155.778 134.143 156.385 134.308C156.992 134.474 157.557 134.766 158.043 135.165C158.196 135.292 158.34 135.43 158.474 135.577L176.021 133.022L176.997 119.828C177.072 118.816 177.546 117.875 178.314 117.212C179.083 116.549 180.084 116.218 181.096 116.293C182.108 116.368 183.049 116.842 183.712 117.61C184.375 118.379 184.705 119.38 184.631 120.392C184.629 120.415 184.627 120.439 184.625 120.462L182.914 138.976L182.906 139.018C182.683 139.729 182.237 140.35 181.634 140.788C181.03 141.226 180.302 141.458 179.556 141.449L158.918 141.093C158.838 141.215 158.752 141.333 158.659 141.447C158.26 141.933 157.762 142.329 157.199 142.609C156.636 142.889 156.021 143.048 155.392 143.073C154.764 143.099 154.137 142.992 153.553 142.758C152.969 142.525 152.441 142.171 152.003 141.719C151.914 141.628 151.83 141.534 151.751 141.437C151.156 140.705 150.808 139.803 150.756 138.861C150.704 137.919 150.95 136.984 151.461 136.191Z" fill="#FFB7B7"/>
<path d="M186.836 248.689L181.832 248.688L179.451 229.385L186.837 229.386L186.836 248.689Z" fill="#FFB7B7"/>
<path d="M188.112 253.54L171.976 253.539V253.335C171.976 251.669 172.638 250.072 173.816 248.894C174.994 247.716 176.591 247.054 178.257 247.054H178.257L188.113 247.055L188.112 253.54Z" fill="#2F2E41"/>
<path d="M221.806 244.151L217.069 245.767L208.584 228.266L215.575 225.882L221.806 244.151Z" fill="#FFB7B7"/>
<path d="M224.58 248.331L209.307 253.54L209.241 253.346C208.704 251.77 208.814 250.044 209.549 248.549C210.283 247.054 211.581 245.912 213.158 245.374L213.158 245.374L222.486 242.193L224.58 248.331Z" fill="#2F2E41"/>
<path d="M192.347 79.9129C192.347 79.9129 187.366 78.2679 184.164 84.8479C180.962 91.4279 175.981 98.6659 175.981 98.6659L178.827 99.3239C178.827 99.3239 179.539 94.7179 181.317 94.0599L180.606 99.9819C180.606 99.9819 201.953 106.891 211.559 99.3239L211.204 97.0209C211.204 97.0209 212.627 97.3499 212.627 99.3239L213.694 98.3369C213.694 98.3369 212.627 96.3629 209.425 93.7309C207.323 92.0034 206.601 88.7168 206.353 86.6619C206.156 84.9223 205.41 83.2905 204.223 82.0035C202.095 79.723 198.217 77.2992 192.347 79.9129Z" fill="#2F2E41"/>
<path d="M194.183 102.902C199.207 102.902 203.28 98.8292 203.28 93.8048C203.28 88.7804 199.207 84.7073 194.183 84.7073C189.158 84.7073 185.085 88.7804 185.085 93.8048C185.085 98.8292 189.158 102.902 194.183 102.902Z" fill="#FFB7B7"/>
<path d="M182.053 110.394L180.399 109.842C180.399 109.842 177.091 111.221 177.091 113.702C177.091 116.183 176.539 126.108 176.539 126.108L183.983 126.935L182.053 110.394Z" fill="#CBCBCB"/>
<path d="M211.658 164.62C210.972 163.851 210.585 162.862 210.567 161.831C210.549 160.801 210.901 159.799 211.56 159.006L206.916 120.118C206.871 119.201 207.191 118.303 207.807 117.622C208.422 116.941 209.283 116.532 210.2 116.485C211.117 116.437 212.015 116.756 212.698 117.37C213.38 117.985 213.791 118.844 213.84 119.761C213.841 119.774 213.841 119.787 213.842 119.799L217.996 158.729C218.146 158.88 218.285 159.043 218.411 159.215C218.744 159.676 218.983 160.198 219.115 160.751C219.246 161.304 219.268 161.878 219.177 162.439C219.087 163.001 218.887 163.539 218.589 164.023C218.291 164.507 217.9 164.928 217.44 165.261C217.392 165.295 217.343 165.329 217.294 165.362C216.761 165.715 216.156 165.945 215.523 166.037C214.89 166.128 214.244 166.078 213.632 165.891C212.869 165.66 212.185 165.219 211.658 164.62Z" fill="#FFB7B7"/>
<path d="M207.405 126.108L214.849 125.28C214.849 125.28 214.297 115.356 214.297 112.875C214.297 110.394 210.989 109.015 210.989 109.015L209.335 109.567L207.405 126.108Z" fill="#CBCBCB"/>
<path d="M183.156 139.878C183.156 139.878 176.815 151.47 176.815 165.53C176.815 179.59 176.264 244.1 176.264 244.1C176.264 244.1 184.534 247.959 189.496 243.273L193.907 171.871L211.275 241.894C211.275 241.894 219.546 243.548 223.405 240.792L215.962 191.996C215.962 191.996 212.929 146.232 204.659 142.924C196.388 139.616 183.156 139.878 183.156 139.878Z" fill="#2F2E41"/>
<path d="M184.352 93.8625C187.573 91.5317 190.18 88.8471 191.904 85.6537C191.904 85.6537 197.815 92.2207 201.427 92.5491C205.039 92.8774 201.755 84.6686 201.755 84.6686L195.188 83.0268L188.949 83.6835L184.024 86.967L184.352 93.8625Z" fill="#2F2E41"/>
<path d="M203.28 107.361C203.28 107.361 203.543 107.22 187.843 107.792L181.272 109.602L180.399 109.842C180.399 109.842 181.226 126.383 183.431 129.416C185.637 132.448 185.085 134.102 184.534 134.378C183.983 134.654 182.604 134.102 183.431 135.481C184.258 136.859 185.361 136.032 184.258 136.859C183.156 137.686 182.604 140.719 182.604 140.719L206.864 144.027C206.864 144.027 207.691 133.275 209.897 127.762C212.102 122.248 212.654 120.043 212.654 120.043L211 109.015L203.28 107.361Z" fill="#CBCBCB"/>
<path d="M157.157 60.3373H155.762V22.1194C155.762 16.253 153.431 10.6269 149.283 6.47865C145.135 2.33045 139.509 9.45646e-06 133.643 0L52.6728 0C46.8064 -1.60758e-05 41.1802 2.3304 37.032 6.47859C32.8838 10.6268 30.5534 16.2529 30.5533 22.1194V231.785C30.5533 237.652 32.8838 243.278 37.032 247.426C41.1801 251.574 46.8063 253.905 52.6727 253.905H133.642C136.547 253.905 139.423 253.333 142.107 252.221C144.791 251.109 147.229 249.48 149.283 247.426C151.337 245.372 152.967 242.934 154.078 240.25C155.19 237.567 155.762 234.69 155.762 231.785V87.5414H157.157L157.157 60.3373Z" fill="#3F3D56"/>
<path d="M151.054 22.2749V231.632C151.056 233.8 150.631 235.946 149.804 237.95C148.976 239.953 147.762 241.773 146.231 243.307C144.699 244.841 142.881 246.058 140.879 246.89C138.878 247.721 136.732 248.15 134.565 248.152H53.1767C48.7987 248.155 44.5987 246.418 41.5008 243.325C38.4028 240.231 36.6607 236.034 36.6576 231.656V22.2749C36.6561 20.1071 37.0815 17.9602 37.9097 15.9568C38.7379 13.9535 39.9525 12.1328 41.4843 10.5989C43.0161 9.06496 44.835 7.84775 46.8372 7.01676C48.8394 6.18576 50.9857 5.75727 53.1534 5.75574H63.0461C62.5601 6.94735 62.3746 8.24021 62.5059 9.52041C62.6373 10.8006 63.0815 12.0289 63.7994 13.0969C64.5173 14.165 65.4869 15.0401 66.6228 15.6451C67.7586 16.2502 69.0258 16.5666 70.3127 16.5664H116.7C117.987 16.5666 119.254 16.2502 120.39 15.6451C121.526 15.0401 122.496 14.165 123.214 13.0969C123.932 12.0289 124.376 10.8006 124.507 9.52041C124.638 8.24021 124.453 6.94735 123.967 5.75574H134.535C138.912 5.75182 143.112 7.48689 146.21 10.5793C149.308 13.6717 151.05 17.868 151.054 22.2452L151.054 22.2749Z" fill="white"/>
<path d="M151.054 53.2487V46.1176H140.261V6.77547C138.428 6.09848 136.489 5.75317 134.535 5.75569H133.13V46.1176H95.6921V16.5664H88.5611V46.1176H57.1843V5.75573H53.1768C52.1285 5.75409 51.0825 5.85319 50.0533 6.05167V46.1176H36.6576V53.2487H50.0533V69.743L36.6578 77.4766V85.713L50.0533 77.9794V127.055H36.6576V134.186H50.0533V205.14H36.6576V212.272H50.0533V247.856C51.0826 248.054 52.1285 248.153 53.1768 248.152H57.1843V212.272H88.5611V248.152H95.6921V212.272H133.13V248.152H134.535C136.489 248.154 138.428 247.809 140.261 247.132V212.272H151.054V205.14H140.261V174.12H150.958V166.989H140.261V134.186H151.054V127.055H140.261V83.5557H151.054V76.4247H140.261V53.2487L151.054 53.2487ZM78.6242 53.2487L57.1845 65.6283L57.1843 53.2487H78.6242ZM57.1843 73.8612L88.561 55.7447V127.055H57.1843V73.8612ZM57.1843 205.14V134.186H88.561V205.14H57.1843ZM133.13 205.14H95.6921V174.12H133.13V205.14ZM133.13 166.989H95.6921V134.186H133.13V166.989ZM133.13 127.055H95.6921V83.5557H133.13V127.055ZM133.13 76.4246H95.6921V53.2487H133.13V76.4246Z" fill="#E5E5E5"/>
<path d="M157.019 76.5566C157.019 99.2023 116.016 149.65 116.016 149.65C116.016 149.65 75.0121 99.2023 75.0121 76.5566C75.0121 65.6817 79.3321 55.2523 87.0218 47.5626C94.7114 39.8729 105.141 35.5529 116.016 35.5529C126.891 35.5529 137.32 39.8729 145.01 47.5626C152.699 55.2523 157.019 65.6817 157.019 76.5566Z" fill="#FDCD03"/>
<path d="M140.262 74.7738C140.262 79.5691 138.84 84.2568 136.176 88.2439C133.512 92.2311 129.725 95.3387 125.295 97.1738C120.864 99.0089 115.989 99.4891 111.286 98.5535C106.583 97.618 102.263 95.3088 98.8719 91.918C95.4811 88.5272 93.1719 84.2071 92.2364 79.5039C91.3009 74.8007 91.781 69.9257 93.6161 65.4954C95.4512 61.0651 98.5589 57.2784 102.546 54.6143C106.533 51.9501 111.221 50.5281 116.016 50.5281C119.199 50.5267 122.35 51.1521 125.291 52.3686C128.232 53.5852 130.904 55.369 133.156 57.6184C135.407 59.8677 137.194 62.5385 138.413 65.4782C139.632 68.4179 140.26 71.569 140.262 74.7515V74.7738Z" fill="white"/>
<path d="M115.932 84.3448C120.92 84.3448 124.965 80.3007 124.965 75.3121C124.965 70.3235 120.92 66.2794 115.932 66.2794C110.943 66.2794 106.899 70.3235 106.899 75.3121C106.899 80.3007 110.943 84.3448 115.932 84.3448Z" fill="#FDCD03"/>
<path d="M129.041 95.9423C125.147 98.4184 120.628 99.7331 116.014 99.7325C111.399 99.7319 106.881 98.4159 102.988 95.9388C103.797 93.1085 105.507 90.6189 107.857 88.8467C110.208 87.0745 113.072 86.1161 116.016 86.1165C118.96 86.1169 121.823 87.0761 124.173 88.8489C126.523 90.6218 128.232 93.1118 129.041 95.9423Z" fill="#FDCD03"/>
<path d="M116.016 179.244C122.12 179.244 127.069 174.295 127.069 168.191C127.069 162.086 122.12 157.138 116.016 157.138C109.911 157.138 104.963 162.086 104.963 168.191C104.963 174.295 109.911 179.244 116.016 179.244Z" fill="#FDCD03"/>
<path d="M287.026 254.12H0.356554C0.26199 254.12 0.171299 254.083 0.104432 254.016C0.0375654 253.949 0 253.858 0 253.764C0 253.669 0.0375654 253.578 0.104432 253.512C0.171299 253.445 0.26199 253.407 0.356554 253.407H287.026C287.12 253.407 287.211 253.445 287.278 253.512C287.345 253.578 287.382 253.669 287.382 253.764C287.382 253.858 287.345 253.949 287.278 254.016C287.211 254.083 287.12 254.12 287.026 254.12Z" fill="#CBCBCB"/>
</g>
<defs>
<clipPath id="clip0_12_959">
<rect width="287.382" height="254.12" fill="white"/>
</clipPath>
</defs>
</svg>
