<svg width="18" height="18" viewBox="0 0 18 18" fill="none" xmlns="http://www.w3.org/2000/svg">
<path d="M9 0.25C11.3206 0.25 13.5462 1.17187 15.1872 2.81282C16.8281 4.45376 17.75 6.67936 17.75 9C17.75 11.3206 16.8281 13.5462 15.1872 15.1872C13.5462 16.8281 11.3206 17.75 9 17.75C6.67936 17.75 4.45376 16.8281 2.81282 15.1872C1.17187 13.5462 0.25 11.3206 0.25 9C0.25 6.67936 1.17187 4.45376 2.81282 2.81282C4.45376 1.17187 6.67936 0.25 9 0.25ZM9 7.93875L6.9675 5.90625C6.82677 5.76552 6.6359 5.68646 6.43688 5.68646C6.23785 5.68646 6.04698 5.76552 5.90625 5.90625C5.76552 6.04698 5.68646 6.23785 5.68646 6.43688C5.68646 6.6359 5.76552 6.82677 5.90625 6.9675L7.93875 9L5.90625 11.0325C5.83657 11.1022 5.78129 11.1849 5.74358 11.276C5.70587 11.367 5.68646 11.4646 5.68646 11.5631C5.68646 11.6617 5.70587 11.7593 5.74358 11.8503C5.78129 11.9413 5.83657 12.0241 5.90625 12.0938C5.97593 12.1634 6.05866 12.2187 6.1497 12.2564C6.24075 12.2941 6.33833 12.3135 6.43688 12.3135C6.53542 12.3135 6.633 12.2941 6.72405 12.2564C6.81509 12.2187 6.89782 12.1634 6.9675 12.0938L9 10.0612L11.0325 12.0938C11.1022 12.1634 11.1849 12.2187 11.276 12.2564C11.367 12.2941 11.4646 12.3135 11.5631 12.3135C11.6617 12.3135 11.7593 12.2941 11.8503 12.2564C11.9413 12.2187 12.0241 12.1634 12.0938 12.0938C12.1634 12.0241 12.2187 11.9413 12.2564 11.8503C12.2941 11.7593 12.3135 11.6617 12.3135 11.5631C12.3135 11.4646 12.2941 11.367 12.2564 11.276C12.2187 11.1849 12.1634 11.1022 12.0938 11.0325L10.0612 9L12.0938 6.9675C12.1634 6.89782 12.2187 6.81509 12.2564 6.72405C12.2941 6.633 12.3135 6.53542 12.3135 6.43688C12.3135 6.33833 12.2941 6.24075 12.2564 6.1497C12.2187 6.05866 12.1634 5.97593 12.0938 5.90625C12.0241 5.83657 11.9413 5.78129 11.8503 5.74358C11.7593 5.70587 11.6617 5.68646 11.5631 5.68646C11.4646 5.68646 11.367 5.70587 11.276 5.74358C11.1849 5.78129 11.1022 5.83657 11.0325 5.90625L9 7.93875Z" fill="#45454B"/>
</svg>
