<svg width="109" height="108" viewBox="0 0 109 108" fill="none" xmlns="http://www.w3.org/2000/svg">
<circle cx="54" cy="54" r="54" fill="#E8F2FF"/>
<circle r="1.27778" transform="matrix(1 0 0 -1 12.3333 52.389)" fill="#76D4B5"/>
<circle r="3.19444" transform="matrix(1 0 0 -1 14.1944 37.1945)" fill="white"/>
<circle r="3.19444" transform="matrix(1 0 0 -1 40.1944 94.1945)" fill="#184153"/>
<circle r="3.19444" transform="matrix(1 0 0 -1 105.194 59.1945)" fill="#184153"/>
<path d="M73.791 25.9481L81.4575 34.2537L81.4575 81.3648C81.4575 83.5739 79.6666 85.3648 77.4575 85.3648L30.5131 85.3648C28.3039 85.3648 26.5131 83.5739 26.5131 81.3648L26.5131 21.6426C26.5131 19.4334 28.3039 17.6426 30.5131 17.6426L66.1243 17.6426L73.791 25.9481Z" fill="#184153"/>
<line x1="41.0687" y1="64.6322" x2="64.3465" y2="64.6322" stroke="white" stroke-linecap="round"/>
<line x1="47.4576" y1="74.8544" x2="59.2354" y2="74.8544" stroke="white" stroke-linecap="round"/>
<line x1="43.6243" y1="69.7433" x2="63.0687" y2="69.7433" stroke="white" stroke-linecap="round"/>
<circle r="1.91667" transform="matrix(1 -9.18448e-09 -9.18448e-09 -1 39.9298 40.0037)" fill="white"/>
<circle r="1.91667" transform="matrix(1 -9.18448e-09 -9.18448e-09 -1 62.9298 40.0037)" fill="white"/>
<path d="M81.4575 34.2537L73.791 25.9481L66.1243 17.6426L66.1243 30.2537C66.1243 32.4628 67.9152 34.2537 70.1243 34.2537L81.4575 34.2537Z" fill="white"/>
<path d="M47.832 57.6632L45.9734 55.7695C48.2059 54.2711 54.5246 54.4127 56.8274 55.7695L54.9688 57.6632C53.0089 59.66 49.7919 59.66 47.832 57.6632Z" fill="white"/>
<circle cx="80.5" cy="79.5" r="11.5" fill="#184153"/>
<path d="M75.9697 79.5L79.6423 83.1726C79.7276 83.2578 79.8683 83.2488 79.942 83.1535L85.7273 75.6666" stroke="white" stroke-width="1.5" stroke-linecap="round"/>
</svg>
