<svg width="131" height="108" viewBox="0 0 131 108" fill="none" xmlns="http://www.w3.org/2000/svg">
<circle cx="54" cy="54" r="54" fill="#E8F2FF"/>
<circle r="1.25926" transform="matrix(1 0 0 -1 15.1111 55.4074)" fill="#76D4B5"/>
<circle r="3.14815" transform="matrix(1 0 0 -1 30.8519 27.074)" fill="white"/>
<circle r="3.14815" transform="matrix(1 0 0 -1 42.7037 96.1481)" fill="#184153"/>
<circle r="3.14815" transform="matrix(1 0 0 -1 87.7037 47.1481)" fill="#184153"/>
<circle r="1.25926" transform="matrix(1 0 0 -1 129.704 61.7036)" fill="white"/>
<path d="M55.089 89.9932C75.3069 80.6769 79.1018 54.9685 77.1789 36.9247L55.089 21L32.999 36.9247C31.0761 54.9685 34.871 80.6769 55.089 89.9932Z" fill="#184153" stroke="#020151"/>
<circle cx="54.6793" cy="55.8242" r="9.97149" fill="#184153" stroke="#E0EBFE" stroke-width="3"/>
<mask id="mask0_78_657" style="mask-type:alpha" maskUnits="userSpaceOnUse" x="45" y="46" width="19" height="19">
<circle cx="54.6793" cy="55.8241" r="7.51331" fill="#FB847C" stroke="#DAFFF3" stroke-width="3"/>
</mask>
<g mask="url(#mask0_78_657)">
<path d="M57.1398 52.1619L57.2294 52.35L57.3581 52.3951C57.3637 52.4077 57.3704 52.4247 57.3779 52.447C57.4174 52.5645 57.4479 52.7437 57.4665 52.9777C57.4946 53.3316 57.4906 53.725 57.4869 54.0855C57.4857 54.203 57.4846 54.3169 57.4846 54.4249V54.5789L57.5712 54.7062C57.7733 55.0033 57.8491 55.2549 57.8638 55.4691C57.8787 55.6863 57.8332 55.8991 57.743 56.1203C57.6508 56.346 57.5188 56.5649 57.3697 56.7981C57.3492 56.8303 57.3279 56.8632 57.3062 56.8969C57.1812 57.0906 57.0416 57.3071 56.9431 57.5139L56.9259 57.55L56.9147 57.5883C56.559 58.8019 55.6981 59.5927 54.8648 59.712C54.1014 59.8213 53.0912 59.3888 52.3508 57.5428L52.3224 57.4719L52.2741 57.4127C51.1758 56.0676 51.512 55.1302 51.6587 54.9763L51.7383 54.8927L51.7732 54.7827C51.9935 54.0889 51.9934 53.4009 51.9933 52.6107C51.9933 52.596 51.9933 52.5812 51.9933 52.5664C51.9933 52.0599 52.3058 51.5722 52.8244 51.1865C53.3432 50.8008 53.9785 50.5884 54.4439 50.5884C54.887 50.5884 55.4253 50.6376 55.8849 50.7742C56.3642 50.9166 56.6427 51.1183 56.7463 51.3359L57.1398 52.1619ZM57.3412 52.3635C57.3413 52.3633 57.3423 52.3646 57.3442 52.3677C57.3421 52.3651 57.3412 52.3636 57.3412 52.3635Z" fill="white" stroke="white"/>
<path d="M54.6591 61.0327L54.6792 61.0335L54.6993 61.0327C55.4981 61.0006 56.3641 60.6499 57.3082 59.8495C58.2309 60.0631 59.2564 60.4009 60.0683 60.9933C60.8609 61.5716 61.4548 62.3933 61.5425 63.6334C60.9527 63.8498 60.0056 64.0185 58.8593 64.1346C57.535 64.2688 56.0259 64.3264 54.6792 64.3364C53.3326 64.3264 51.8235 64.2688 50.4992 64.1346C49.3528 64.0185 48.4057 63.8498 47.8159 63.6334C47.9036 62.3933 48.4976 61.5716 49.2901 60.9933C50.102 60.4009 51.1275 60.0631 52.0503 59.8495C52.9943 60.6499 53.8603 61.0006 54.6591 61.0327Z" fill="white" stroke="white"/>
</g>
<circle cx="74.025" cy="79.2668" r="9.83233" fill="url(#paint0_linear_78_657)" stroke="#D6E0F2"/>
<path d="M75.2556 82.3372H73.949C73.9529 81.9739 73.9841 81.6692 74.0427 81.4231C74.1013 81.1731 74.199 80.9465 74.3357 80.7434C74.4763 80.5403 74.6619 80.3254 74.8923 80.0989C75.072 79.927 75.2341 79.7649 75.3787 79.6125C75.5232 79.4563 75.6384 79.2922 75.7244 79.1204C75.8103 78.9446 75.8533 78.7434 75.8533 78.5168C75.8533 78.2708 75.8123 78.0618 75.7302 77.8899C75.6482 77.718 75.5271 77.5872 75.3669 77.4973C75.2107 77.4075 75.0154 77.3625 74.781 77.3625C74.5857 77.3625 74.4021 77.4016 74.2302 77.4797C74.0583 77.554 73.9197 77.6711 73.8142 77.8313C73.7087 77.9875 73.6521 78.1946 73.6443 78.4524H72.2322C72.24 77.9602 72.3572 77.5461 72.5837 77.2102C72.8103 76.8743 73.115 76.6223 73.4978 76.4543C73.8806 76.2864 74.3083 76.2024 74.781 76.2024C75.3044 76.2024 75.7517 76.2922 76.1228 76.4719C76.4939 76.6477 76.7771 76.9055 76.9724 77.2454C77.1716 77.5813 77.2712 77.9875 77.2712 78.4641C77.2712 78.8079 77.2029 79.1204 77.0662 79.4016C76.9294 79.679 76.7517 79.9387 76.533 80.1809C76.3142 80.4192 76.0779 80.6575 75.824 80.8958C75.6052 81.095 75.4568 81.3118 75.3787 81.5461C75.3005 81.7766 75.2595 82.0403 75.2556 82.3372ZM73.8318 84.1653C73.8318 83.9543 73.9041 83.7766 74.0486 83.6321C74.1931 83.4836 74.3904 83.4094 74.6404 83.4094C74.8904 83.4094 75.0876 83.4836 75.2322 83.6321C75.3767 83.7766 75.449 83.9543 75.449 84.1653C75.449 84.3762 75.3767 84.5559 75.2322 84.7043C75.0876 84.8489 74.8904 84.9211 74.6404 84.9211C74.3904 84.9211 74.1931 84.8489 74.0486 84.7043C73.9041 84.5559 73.8318 84.3762 73.8318 84.1653Z" fill="#184153"/>
<defs>
<linearGradient id="paint0_linear_78_657" x1="84.9968" y1="79.9962" x2="63.6926" y2="81.2253" gradientUnits="userSpaceOnUse">
<stop stop-color="#E5EDFD"/>
<stop offset="0.495527" stop-color="#FDFDFD"/>
<stop offset="1" stop-color="#E5EDFD"/>
</linearGradient>
</defs>
</svg>
