<svg width="137" height="108" viewBox="0 0 137 108" fill="none" xmlns="http://www.w3.org/2000/svg">
<rect x="24.7667" y="66.3593" width="3.57778" height="3.57778" stroke="#184153" stroke-width="0.2"/>
<path d="M16.7439 68.2075V68.4888H15.969V68.2075H16.7439Z" fill="#011A51" fill-opacity="0.51"/>
<circle cx="54" cy="54" r="54" fill="#E8F2FF"/>
<g clip-path="url(#clip0_78_596)">
<path d="M81.495 74.0887C79.974 66.6402 78.0727 64.1568 78.0727 64.1568L77.3463 63.5863L76.4729 62.8992L76.4771 62.8108L76.2699 62.7395L76.2212 62.7012L76.1415 62.6392L76.1287 62.6531L76.1016 62.6815L72.149 61.3208L67.1345 59.5957L64.8124 56.5389C64.4342 56.041 63.9474 55.6386 63.3899 55.3633C62.8325 55.0879 62.2197 54.947 61.5995 54.9516L54.1837 55.0072C53.181 55.0147 52.2173 55.4019 51.4821 56.0925L46.6078 60.6717L39.0126 64.3455L38.9998 64.3326L38.9201 64.3902L37.7465 64.9586L37.795 65.2139L37.0686 65.7447C37.0686 65.7447 35.1674 68.0554 33.6463 74.9862C33.2594 76.7497 33.0689 80.5327 33.0002 85.1943C32.9967 85.4301 33.0396 85.6643 33.1263 85.8831C33.213 86.102 33.3418 86.3013 33.5052 86.4693C33.6686 86.6373 33.8634 86.7708 34.0782 86.8619C34.2929 86.953 34.5235 86.9999 34.7563 87H75.3235V87H80.3868C80.6195 86.9999 80.8499 86.953 81.0645 86.862C81.2792 86.771 81.4738 86.6377 81.6372 86.4699C81.8006 86.302 81.9294 86.103 82.0162 85.8844C82.1031 85.6657 82.1461 85.4318 82.143 85.1961C82.0758 80.1236 81.8854 76.0012 81.495 74.0887Z" fill="#184153"/>
<path d="M86.7 23.4957C85.1217 23.4957 83.608 24.1307 82.492 25.261C81.3759 26.3914 80.749 27.9244 80.749 29.5229C80.749 31.1214 81.3759 32.6544 82.492 33.7848C83.608 34.9151 85.1217 35.5501 86.7 35.5501H131.049C132.627 35.5501 134.141 34.9151 135.257 33.7848C136.373 32.6544 137 31.1214 137 29.5229C137 27.9244 136.373 26.3914 135.257 25.261C134.141 24.1307 132.627 23.4957 131.049 23.4957H86.7Z" fill="#E5E5E5"/>
<path d="M86.6999 24.7156C85.441 24.7156 84.2337 25.2221 83.3436 26.1236C82.4534 27.0252 81.9533 28.248 81.9533 29.523C81.9533 30.798 82.4534 32.0207 83.3436 32.9223C84.2337 33.8239 85.441 34.3304 86.6999 34.3304H131.049C132.308 34.3304 133.515 33.8239 134.405 32.9223C135.296 32.0207 135.796 30.798 135.796 29.523C135.796 28.248 135.296 27.0252 134.405 26.1236C133.515 25.2221 132.308 24.7156 131.049 24.7156H86.6999Z" fill="white"/>
<path d="M59.0562 52.1299C64.4219 52.1299 68.7717 47.7245 68.7717 42.2901C68.7717 36.8557 64.4219 32.4502 59.0562 32.4502C53.6905 32.4502 49.3407 36.8557 49.3407 42.2901C49.3407 47.7245 53.6905 52.1299 59.0562 52.1299Z" fill="#9E616A"/>
<path d="M56.5708 51.6481C56.5293 51.5556 56.4879 51.4627 56.4466 51.3695C56.4625 51.37 56.4782 51.3723 56.4942 51.3728L56.5708 51.6481Z" fill="#2F2E41"/>
<path d="M49.0705 32.8977C49.5619 32.5007 50.1362 32.1354 50.7645 32.1559C51.3927 32.1764 52.0298 32.7511 51.8996 33.3739C53.0536 31.3046 54.8903 29.713 57.0875 28.8786C59.2846 28.0442 61.7018 28.0202 63.9146 28.8109C65.4761 29.3689 67.0073 30.4851 67.366 32.1223C67.4581 32.5425 67.4779 33.0033 67.737 33.3446C68.0636 33.7749 68.6886 33.8722 69.2033 33.7208C69.2084 33.7193 69.2136 33.7178 69.2187 33.7162C69.3056 33.6862 69.3995 33.6832 69.4881 33.7078C69.5767 33.7323 69.656 33.7832 69.7158 33.8539C69.7755 33.9246 69.8129 34.0118 69.8232 34.1043C69.8335 34.1967 69.8161 34.2902 69.7734 34.3725L69.3316 35.2071C69.8885 35.3328 70.4672 35.3203 71.0183 35.1707C71.1099 35.1464 71.2066 35.1514 71.2953 35.185C71.3839 35.2185 71.4602 35.279 71.5135 35.3582C71.5669 35.4374 71.5947 35.5314 71.5933 35.6272C71.5918 35.7231 71.5611 35.8161 71.5054 35.8936C70.0485 37.9193 67.6147 39.2275 65.131 39.2121C63.3657 39.2012 61.5823 38.585 59.8643 38.9961C59.1997 39.1552 58.5786 39.4629 58.0467 39.8968C57.5149 40.3306 57.0856 40.8796 56.7905 41.5033C56.4955 42.1271 56.342 42.8099 56.3414 43.5015C56.3409 44.1932 56.4932 44.8762 56.7873 45.5005C56.2595 44.9158 55.2393 45.0543 54.6994 45.6275C54.1595 46.2008 54.0198 47.0564 54.0742 47.8467C54.1573 49.0554 54.6249 50.1943 55.1179 51.3028C50.985 51.171 47.076 48.2348 45.7602 44.2634C44.4389 40.2754 45.8237 35.5209 49.0705 32.8977Z" fill="#2F2E41"/>
<path opacity="0.2" d="M42.5626 71.8398L45.2875 86.8557L46.9226 86.9999L42.5626 71.8398Z" fill="black"/>
<path opacity="0.2" d="M72.5788 70.7075L69.8538 86.845L68.2188 87L72.5788 70.7075Z" fill="black"/>
<path d="M51.3947 27.8441C50.8722 28.0651 50.327 27.8229 50.0984 27.2684C49.8663 26.7053 50.0831 26.1338 50.6139 25.9093C51.1448 25.6847 51.6803 25.9275 51.9162 26.4996C52.1485 27.0632 51.9341 27.616 51.3947 27.8441ZM50.3939 24.801L49.9784 24.9767C49.8746 25.0201 49.7586 25.0224 49.6532 24.9833C49.5478 24.9441 49.4607 24.8663 49.4092 24.7653L49.3887 24.7246C48.9417 23.9081 48.8905 22.9158 49.2374 21.7768C49.5587 20.755 49.6922 20.0365 49.4238 19.3854C49.1134 18.6328 48.4508 18.397 47.6058 18.7385C47.278 18.8771 47.1737 18.8749 46.9158 19.1341C46.8597 19.1911 46.7928 19.2361 46.7192 19.2665C46.6455 19.2968 46.5666 19.3118 46.4871 19.3105C46.4102 19.3096 46.3344 19.293 46.264 19.2618C46.1936 19.2305 46.1301 19.1852 46.0774 19.1286C45.9758 19.0195 45.9189 18.8753 45.9182 18.7254C45.9174 18.5754 45.9729 18.4307 46.0734 18.3205C46.5069 17.8609 47.0298 17.4973 47.609 17.2526C49.4246 16.4848 50.3386 17.6184 50.7569 18.6329C51.166 19.6251 50.9359 20.5458 50.5661 21.7382C50.2562 22.7289 50.2743 23.4631 50.6263 24.193C50.6517 24.2482 50.6658 24.308 50.6678 24.3689C50.6698 24.4298 50.6597 24.4904 50.638 24.5472C50.6163 24.604 50.5835 24.6557 50.5415 24.6993C50.4996 24.743 50.4493 24.7775 50.3939 24.801L50.3939 24.801Z" fill="#FF897E"/>
<path d="M96.496 32.3974H87.6722C87.6442 32.3976 87.6164 32.3922 87.5905 32.3815C87.5645 32.3707 87.5409 32.3549 87.521 32.3349C87.5011 32.3149 87.4853 32.2911 87.4746 32.2649C87.4638 32.2387 87.4583 32.2106 87.4583 32.1822C87.4583 32.1538 87.4638 32.1257 87.4746 32.0995C87.4853 32.0733 87.5011 32.0495 87.521 32.0294C87.5409 32.0094 87.5645 31.9936 87.5905 31.9829C87.6164 31.9722 87.6442 31.9667 87.6722 31.9669H96.496C96.5522 31.9673 96.6059 31.9902 96.6454 32.0305C96.685 32.0708 96.7071 32.1253 96.7071 32.1822C96.7071 32.239 96.685 32.2935 96.6454 32.3339C96.6059 32.3742 96.5522 32.397 96.496 32.3974Z" fill="#FF897E"/>
<path d="M107.69 32.4692H98.8658C98.8377 32.4694 98.81 32.464 98.784 32.4533C98.758 32.4425 98.7345 32.4267 98.7146 32.4067C98.6947 32.3867 98.6789 32.3629 98.6681 32.3367C98.6573 32.3105 98.6518 32.2824 98.6518 32.254C98.6518 32.2256 98.6573 32.1975 98.6681 32.1712C98.6789 32.145 98.6947 32.1212 98.7146 32.1012C98.7345 32.0812 98.758 32.0654 98.784 32.0547C98.81 32.0439 98.8377 32.0385 98.8658 32.0387H107.69C107.718 32.0385 107.745 32.0439 107.771 32.0547C107.797 32.0654 107.821 32.0812 107.841 32.1012C107.861 32.1212 107.877 32.145 107.887 32.1712C107.898 32.1975 107.904 32.2256 107.904 32.254C107.904 32.2824 107.898 32.3105 107.887 32.3367C107.877 32.3629 107.861 32.3867 107.841 32.4067C107.821 32.4267 107.797 32.4425 107.771 32.4533C107.745 32.464 107.718 32.4694 107.69 32.4692Z" fill="#FF897E"/>
<path d="M118.883 32.541H110.059C110.003 32.5406 109.95 32.5178 109.91 32.4774C109.87 32.4371 109.848 32.3826 109.848 32.3257C109.848 32.2689 109.87 32.2144 109.91 32.174C109.95 32.1337 110.003 32.1109 110.059 32.1105H118.883C118.911 32.1103 118.939 32.1157 118.965 32.1264C118.991 32.1372 119.015 32.153 119.034 32.173C119.054 32.193 119.07 32.2168 119.081 32.243C119.092 32.2692 119.097 32.2973 119.097 32.3257C119.097 32.3541 119.092 32.3822 119.081 32.4085C119.07 32.4347 119.054 32.4585 119.034 32.4785C119.015 32.4985 118.991 32.5143 118.965 32.525C118.939 32.5358 118.911 32.5412 118.883 32.541H118.883Z" fill="#FF897E"/>
<path d="M130.077 32.6128H121.253C121.197 32.6124 121.143 32.5895 121.103 32.5492C121.064 32.5089 121.042 32.4543 121.042 32.3975C121.042 32.3407 121.064 32.2861 121.103 32.2458C121.143 32.2055 121.197 32.1826 121.253 32.1823H130.077C130.133 32.1826 130.186 32.2055 130.226 32.2458C130.266 32.2861 130.288 32.3407 130.288 32.3975C130.288 32.4543 130.266 32.5089 130.226 32.5492C130.186 32.5895 130.133 32.6124 130.077 32.6128Z" fill="#FF897E"/>
<path d="M92.0648 30.4164C92.9705 30.4164 93.7048 29.6728 93.7048 28.7554C93.7048 27.8381 92.9705 27.0945 92.0648 27.0945C91.159 27.0945 90.4248 27.8381 90.4248 28.7554C90.4248 29.6728 91.159 30.4164 92.0648 30.4164Z" fill="#FF897E"/>
<path d="M103.326 30.4164C104.232 30.4164 104.966 29.6728 104.966 28.7554C104.966 27.8381 104.232 27.0945 103.326 27.0945C102.42 27.0945 101.686 27.8381 101.686 28.7554C101.686 29.6728 102.42 30.4164 103.326 30.4164Z" fill="#FF897E"/>
<path d="M114.587 30.4164C115.493 30.4164 116.227 29.6728 116.227 28.7554C116.227 27.8381 115.493 27.0945 114.587 27.0945C113.681 27.0945 112.947 27.8381 112.947 28.7554C112.947 29.6728 113.681 30.4164 114.587 30.4164Z" fill="#FF897E"/>
<path d="M125.848 30.4164C126.754 30.4164 127.488 29.6728 127.488 28.7554C127.488 27.8381 126.754 27.0945 125.848 27.0945C124.942 27.0945 124.208 27.8381 124.208 28.7554C124.208 29.6728 124.942 30.4164 125.848 30.4164Z" fill="#FF897E"/>
<circle r="3.19444" transform="matrix(1 0 0 -1 84.1944 52.1945)" fill="#184153"/>
</g>
<circle r="3.19444" transform="matrix(1 0 0 -1 41.1944 99.1945)" fill="#184153"/>
<circle r="3.19444" transform="matrix(1 0 0 -1 25.1944 19.1945)" fill="white"/>
<circle r="9" transform="matrix(1 0 0 -1 16 60)" fill="#184153"/>
<defs>
<clipPath id="clip0_78_596">
<rect width="104" height="70" fill="white" transform="translate(33 17)"/>
</clipPath>
</defs>
</svg>
