<svg width="106" height="115" viewBox="0 0 106 115" fill="none" xmlns="http://www.w3.org/2000/svg">
<circle r="3.02029" transform="matrix(-1 0 0 1 16.0202 28.0202)" fill="#184153"/>
<rect x="82" y="25.9998" width="70" height="60" rx="4" transform="rotate(90 82 25.9998)" fill="#184153"/>
<line x1="32" y1="45.0179" x2="72.2665" y2="45.0179" stroke="#FBFAFF" stroke-width="2" stroke-linecap="round"/>
<line x1="40" y1="75.3862" x2="64.6946" y2="75.3862" stroke="#FBFAFF" stroke-width="2" stroke-linecap="round"/>
<line x1="26" y1="59.8143" x2="77.3892" y2="59.8143" stroke="#FBFAFF" stroke-width="2" stroke-linecap="round"/>
<g filter="url(#filter0_d_182_642)">
<circle cx="51.3114" cy="24.6885" r="12.8837" fill="white"/>
<circle cx="51.3114" cy="20.3939" r="3.22092" fill="#184153"/>
<ellipse cx="51.3113" cy="27.9094" rx="6.44184" ry="3.22092" fill="#184153"/>
</g>
<circle cx="27.7067" cy="91.7065" r="11.7067" fill="url(#paint0_linear_182_642)" stroke="#184153" stroke-width="2"/>
<rect opacity="0.5" x="75.2412" y="69.3101" width="26.5686" height="16.1722" rx="3" fill="#A2BAF0"/>
<rect x="66.5" y="67.4998" width="33.6547" height="14.017" rx="2.5" fill="#FBFAFF" stroke="white"/>
<line x1="69.9656" y1="74.5859" x2="86.2929" y2="74.5859" stroke="#184153" stroke-linecap="round"/>
<path d="M91.4135 73.3531L93.0717 74.936C93.1563 75.0167 93.2917 75.008 93.3653 74.9171L96.0341 71.6204" stroke="#184153" stroke-width="1.2" stroke-linecap="round"/>
<defs>
<filter id="filter0_d_182_642" x="38.4277" y="11.8048" width="25.7673" height="27.7673" filterUnits="userSpaceOnUse" color-interpolation-filters="sRGB">
<feFlood flood-opacity="0" result="BackgroundImageFix"/>
<feColorMatrix in="SourceAlpha" type="matrix" values="0 0 0 0 0 0 0 0 0 0 0 0 0 0 0 0 0 0 127 0" result="hardAlpha"/>
<feOffset dy="2"/>
<feComposite in2="hardAlpha" operator="out"/>
<feColorMatrix type="matrix" values="0 0 0 0 0 0 0 0 0 0 0 0 0 0 0 0 0 0 0.07 0"/>
<feBlend mode="normal" in2="BackgroundImageFix" result="effect1_dropShadow_182_642"/>
<feBlend mode="normal" in="SourceGraphic" in2="effect1_dropShadow_182_642" result="shape"/>
</filter>
<linearGradient id="paint0_linear_182_642" x1="35.7928" y1="90.5513" x2="18.4655" y2="90.5513" gradientUnits="userSpaceOnUse">
<stop stop-color="#E0E5F2"/>
<stop offset="0.464626" stop-color="white"/>
<stop offset="1" stop-color="#E0E5F2"/>
</linearGradient>
</defs>
</svg>
